<svg width="524" height="302" viewBox="0 0 524 302" fill="none" xmlns="http://www.w3.org/2000/svg">
<g clip-path="url(#clip0_2_3)">
<path d="M231 95C231 78.4315 244.431 65 261 65H350C366.569 65 380 78.4315 380 95V332C380 348.569 366.569 362 350 362H261C244.431 362 231 348.569 231 332V95Z" fill="#2E79A4"/>
<path d="M144 125C144 108.431 157.431 95 174 95H263C279.569 95 293 108.431 293 125V302C293 318.569 279.569 332 263 332H174C157.431 332 144 318.569 144 302V125Z" fill="#37A42E"/>
</g>
<defs>
<clipPath id="clip0_2_3">
<rect width="524" height="302" fill="white"/>
</clipPath>
</defs>
</svg>
